<svg width="59" height="59" viewBox="0 0 59 59" fill="none" xmlns="http://www.w3.org/2000/svg">
<path d="M29.291 0.00300162C23.8659 0.0754645 18.5689 1.66197 13.9971 4.58367C9.42532 7.50536 5.76061 11.6461 3.41609 16.539C1.07157 21.4319 0.14048 26.8825 0.727778 32.2762C1.31508 37.6699 3.39741 42.7924 6.74003 47.0661L15.6095 40.5518C13.4543 37.8741 12.0962 34.6439 11.6905 31.2306C11.2849 27.8173 11.8482 24.3588 13.3159 21.2506C14.7836 18.1424 17.0965 15.51 19.99 13.6546C22.8835 11.7991 26.2408 10.7956 29.6779 10.7586V17.6912L46.382 5.26232C41.3798 1.75555 35.3993 -0.0847981 29.291 0.00300162ZM52.4127 10.9642L43.5432 17.4809C45.6992 20.1585 47.0579 23.389 47.4639 26.8026C47.8699 30.2163 47.3068 33.6753 45.839 36.784C44.3713 39.8926 42.0581 42.5253 39.1641 44.3808C36.2702 46.2364 32.9123 47.2399 29.4748 47.2764V40.3438L12.7707 52.7727C18.4894 56.7717 25.4537 58.5847 32.3964 57.8819C39.3391 57.1792 45.7988 54.0074 50.6001 48.9436C55.4015 43.8798 58.2254 37.2607 58.558 30.2904C58.8907 23.3202 56.71 16.4622 52.4127 10.9642Z" fill="white"/>
</svg>
