<svg width="861" height="582" viewBox="0 0 861 582" fill="none" xmlns="http://www.w3.org/2000/svg">
<line x1="180.5" x2="180.5" y2="314.474" stroke="#FCFCFC" stroke-dasharray="5 5"/>
<path d="M43.8585 405.459L154.384 305.19L221.635 321.708L193.778 442.282L222.79 449.408L216.684 475.837L187.671 468.711L179.821 502.691L114.147 486.56L121.998 452.58L52.8331 435.463L37.7805 431.766L43.8585 405.459ZM128.105 426.151L146.592 346.134L76.0274 413.36L128.105 426.151Z" fill="url(#paint0_radial_5001_1696)"/>
<line x1="418.5" x2="418.5" y2="305" stroke="#FCFCFC" stroke-dasharray="5 5"/>
<path d="M325.038 421.96C322.263 407.134 321.753 393.538 323.508 381.17C325.346 368.788 329.363 357.863 335.56 348.394C341.84 338.911 350.322 331.007 361.008 324.684C371.679 318.278 384.509 313.673 399.499 310.868C414.488 308.063 428.116 307.717 440.38 309.83C452.63 311.862 463.355 316.171 472.557 322.757C481.841 329.328 489.537 338.062 495.645 348.957C501.836 359.838 506.318 372.691 509.093 387.517C511.867 402.343 512.336 415.947 510.499 428.33C508.744 440.697 504.726 451.622 498.447 461.106C492.25 470.574 483.816 478.511 473.145 484.916C462.459 491.24 449.621 495.804 434.632 498.609C419.642 501.414 406.022 501.801 393.773 499.769C381.508 497.656 370.734 493.314 361.45 486.743C352.248 480.156 344.552 471.423 338.362 460.543C332.253 449.647 327.812 436.786 325.038 421.96ZM430.378 475.879C432.426 475.495 434.371 474.792 436.214 473.769C438.042 472.664 439.64 471.008 441.008 468.803C442.375 466.597 443.449 463.725 444.228 460.188C445.074 456.554 445.498 452.024 445.5 446.597C445.568 441.074 445.192 434.532 444.37 426.97C443.549 419.409 442.188 410.55 440.287 400.393C438.386 390.236 436.452 381.484 434.483 374.137C432.515 366.791 430.508 360.596 428.462 355.553C426.483 350.413 424.449 346.342 422.362 343.342C420.341 340.244 418.294 337.914 416.221 336.352C414.149 334.79 412.068 333.865 409.98 333.578C407.876 333.208 405.8 333.215 403.752 333.598C401.704 333.982 399.767 334.726 397.939 335.831C396.095 336.854 394.49 338.469 393.122 340.674C391.755 342.88 390.648 345.8 389.802 349.435C389.023 352.972 388.599 357.502 388.53 363.026C388.528 368.452 388.938 374.946 389.76 382.507C390.581 390.068 391.942 398.927 393.843 409.084C395.744 419.241 397.678 427.993 399.647 435.34C401.615 442.686 403.589 448.93 405.568 454.07C407.614 459.113 409.647 463.184 411.668 466.281C413.756 469.282 415.836 471.563 417.909 473.125C419.981 474.687 422.07 475.653 424.173 476.022C426.262 476.31 428.33 476.262 430.378 475.879Z" fill="url(#paint1_radial_5001_1696)"/>
<line x1="694.5" x2="694.5" y2="305" stroke="#FCFCFC" stroke-dasharray="5 5"/>
<path d="M629.037 454.529L668.166 309.514L733.475 286.486L774.627 403.193L802.801 393.258L811.822 418.84L783.647 428.774L795.244 461.664L731.468 484.152L719.87 451.262L652.634 474.838L638.016 479.992L629.037 454.529ZM710.85 425.681L683.54 348.23L660.277 443.513L710.85 425.681Z" fill="url(#paint2_radial_5001_1696)"/>
<defs>
<radialGradient id="paint0_radial_5001_1696" cx="0" cy="0" r="1" gradientUnits="userSpaceOnUse" gradientTransform="translate(140.145 402.355) rotate(103.01) scale(158.016 113.856)">
<stop stop-color="#D7F0FF"/>
<stop offset="1" stop-color="#9BCEEF"/>
</radialGradient>
<radialGradient id="paint1_radial_5001_1696" cx="0" cy="0" r="1" gradientUnits="userSpaceOnUse" gradientTransform="translate(418.123 410.39) rotate(79.4005) scale(153.5 117.904)">
<stop stop-color="#D7F0FF"/>
<stop offset="1" stop-color="#9BCEEF"/>
</radialGradient>
<radialGradient id="paint2_radial_5001_1696" cx="0" cy="0" r="1" gradientUnits="userSpaceOnUse" gradientTransform="translate(708.383 399.512) rotate(70.5769) scale(153.5 113.674)">
<stop stop-color="#D7F0FF"/>
<stop offset="1" stop-color="#9BCEEF"/>
</radialGradient>
</defs>
</svg>
