<svg width="64" height="64" viewBox="0 0 64 64" fill="none" xmlns="http://www.w3.org/2000/svg">
<path opacity="0.5" d="M46.0002 30V45.4125C45.9999 45.9422 45.7895 46.4502 45.4152 46.825L36.8277 55.4125C36.5649 55.6747 36.2343 55.8586 35.873 55.9436C35.5117 56.0286 35.1338 56.0114 34.7817 55.8938C34.4296 55.7763 34.1172 55.5631 33.8793 55.2781C33.6415 54.993 33.4877 54.6475 33.4352 54.28L32.0002 44L46.0002 30ZM34.0002 18H18.5877C18.0579 18.0002 17.5499 18.2106 17.1752 18.585L8.58765 27.1725C8.32546 27.4353 8.14157 27.7658 8.05657 28.1272C7.97156 28.4885 7.98879 28.8664 8.10633 29.2185C8.22387 29.5706 8.43708 29.883 8.7221 30.1208C9.00712 30.3586 9.3527 30.5124 9.72015 30.565L20.0002 32L34.0002 18ZM10.0002 54C19.4127 54 22.6727 49.0775 23.6402 46.955L17.0452 40.36C14.9227 41.3275 10.0002 44.5875 10.0002 54Z" fill="#079DFC"/>
<path d="M55.9625 11.78C55.9032 10.8048 55.4891 9.88506 54.7983 9.19423C54.1074 8.5034 53.1877 8.08929 52.2125 8.03003C49.0675 7.84253 41.03 8.13002 34.36 14.7975L33.1725 16H18.59C18.0627 15.9971 17.54 16.099 17.0525 16.2998C16.5649 16.5007 16.1222 16.7965 15.75 17.17L7.17498 25.75C6.6491 26.2755 6.28008 26.9372 6.10935 27.6608C5.93861 28.3844 5.97292 29.1412 6.20841 29.8464C6.4439 30.5516 6.87126 31.1772 7.44252 31.653C8.01378 32.1288 8.70634 32.4359 9.44248 32.54L19.06 33.8825L30.1125 44.935L31.455 54.5575C31.5582 55.2937 31.8653 55.9863 32.3416 56.5571C32.8178 57.1279 33.4442 57.5541 34.15 57.7875C34.561 57.9248 34.9916 57.9949 35.425 57.995C35.9498 57.996 36.4696 57.8931 36.9544 57.6923C37.4392 57.4915 37.8796 57.1968 38.25 56.825L46.83 48.25C47.2035 47.8778 47.4993 47.4351 47.7002 46.9475C47.901 46.46 48.0029 45.9373 48 45.41V30.8275L49.1925 29.635C55.8625 22.965 56.15 14.9275 55.9625 11.78ZM18.59 20H29.1725L19.29 29.88L9.99998 28.585L18.59 20ZM37.1925 17.6375C39.1143 15.7039 41.4266 14.2025 43.9749 13.2338C46.5233 12.2651 49.249 11.8513 51.97 12.02C52.1452 14.7425 51.7357 17.4709 50.7689 20.0219C49.8022 22.573 48.3005 24.8875 46.365 26.81L32 41.17L22.83 32L37.1925 17.6375ZM44 45.41L35.4175 54L34.12 44.7075L44 34.8275V45.41ZM25.46 47.785C24.335 50.25 20.5725 56 9.99998 56C9.46954 56 8.96084 55.7893 8.58576 55.4142C8.21069 55.0392 7.99998 54.5305 7.99998 54C7.99998 43.4275 13.75 39.665 16.215 38.5375C16.454 38.4285 16.7121 38.3677 16.9746 38.3584C17.2372 38.3492 17.4989 38.3918 17.745 38.4837C17.9911 38.5756 18.2166 38.7151 18.4088 38.8942C18.601 39.0733 18.756 39.2885 18.865 39.5275C18.974 39.7665 19.0348 40.0247 19.0441 40.2872C19.0533 40.5497 19.0107 40.8115 18.9188 41.0576C18.8269 41.3036 18.6874 41.5292 18.5083 41.7214C18.3292 41.9135 18.114 42.0685 17.875 42.1775C16.2675 42.91 12.72 45.2675 12.095 51.905C18.7325 51.28 21.095 47.7325 21.8225 46.125C21.9315 45.886 22.0865 45.6708 22.2786 45.4917C22.4708 45.3126 22.6964 45.1731 22.9424 45.0812C23.1885 44.9893 23.4503 44.9467 23.7128 44.9559C23.9753 44.9652 24.2335 45.026 24.4725 45.135C24.7115 45.244 24.9267 45.399 25.1058 45.5912C25.2849 45.7834 25.4244 46.0089 25.5163 46.255C25.6082 46.5011 25.6508 46.7628 25.6416 47.0254C25.6323 47.2879 25.5715 47.546 25.4625 47.785H25.46Z" fill="white"/>
</svg>
