<svg width="64" height="64" viewBox="0 0 64 64" fill="none" xmlns="http://www.w3.org/2000/svg">
<path d="M58 24H6L32 8L58 24Z" fill="#3580AF"/>
<path d="M6 26H12V42H8C7.46957 42 6.96086 42.2107 6.58579 42.5858C6.21071 42.9608 6 43.4695 6 44C6 44.5304 6.21071 45.0391 6.58579 45.4142C6.96086 45.7893 7.46957 46 8 46H56C56.5304 46 57.0391 45.7893 57.4142 45.4142C57.7893 45.0391 58 44.5304 58 44C58 43.4695 57.7893 42.9608 57.4142 42.5858C57.0391 42.2107 56.5304 42 56 42H52V26H58C58.4352 25.9995 58.8583 25.8572 59.2052 25.5945C59.5522 25.3318 59.804 24.9632 59.9224 24.5444C60.0409 24.1257 60.0196 23.6798 59.8617 23.2743C59.7038 22.8688 59.4179 22.5258 59.0475 22.2975L33.0475 6.29748C32.7324 6.10377 32.3698 6.00122 32 6.00122C31.6302 6.00122 31.2676 6.10377 30.9525 6.29748L4.9525 22.2975C4.58207 22.5258 4.29622 22.8688 4.13833 23.2743C3.98043 23.6798 3.95909 24.1257 4.07756 24.5444C4.19602 24.9632 4.44782 25.3318 4.79476 25.5945C5.1417 25.8572 5.56484 25.9995 6 26ZM16 26H24V42H16V26ZM36 26V42H28V26H36ZM48 42H40V26H48V42ZM32 10.3475L50.935 22H13.065L32 10.3475ZM62 52C62 52.5304 61.7893 53.0391 61.4142 53.4142C61.0391 53.7893 60.5304 54 60 54H4C3.46957 54 2.96086 53.7893 2.58579 53.4142C2.21071 53.0391 2 52.5304 2 52C2 51.4695 2.21071 50.9608 2.58579 50.5858C2.96086 50.2107 3.46957 50 4 50H60C60.5304 50 61.0391 50.2107 61.4142 50.5858C61.7893 50.9608 62 51.4695 62 52Z" fill="white"/>
</svg>
