<svg width="74" height="74" viewBox="0 0 74 74" fill="none" xmlns="http://www.w3.org/2000/svg">
<g clip-path="url(#clip0_82_507)">
<path d="M15.2969 54.5029L15.6522 54.0056L32.4546 22.1234L32.49 21.7859L25.0834 7.87308C24.4625 6.70767 22.7154 7.00237 22.5119 8.30701L15.2969 54.5029Z" fill="#FEFEFE"/>
<path d="M15.5059 54.1237L15.7745 53.5997L32.401 22.0516L25.0126 8.08226C24.3986 6.92907 22.8392 7.2231 22.6377 8.51402L15.5059 54.1237Z" fill="#CCCCCC"/>
<g filter="url(#filter0_i_82_507)">
<path d="M15.5059 54.1237L15.7745 53.5997L32.401 22.0516L25.0126 8.08226C24.3986 6.92907 22.8392 7.2231 22.6377 8.51402L15.5059 54.1237Z" fill="white"/>
</g>
<path d="M37.8886 32.3096L43.4035 26.6616L37.8869 16.1304C37.3633 15.1335 35.9012 15.1305 35.383 16.1304L32.4355 21.7511V22.2297L37.8884 32.3096H37.8886Z" fill="white"/>
<path d="M37.7915 32.0742L43.1531 26.5832L37.7915 16.3738C37.2824 15.4047 36.0455 15.3031 35.5418 16.2751L32.5789 21.9831L32.4902 22.275L37.7915 32.0742Z" fill="#FEFEFE"/>
<g filter="url(#filter1_i_82_507)">
<path d="M37.7915 32.0742L43.1531 26.5832L37.7915 16.3738C37.2824 15.4047 36.0455 15.3031 35.5418 16.2751L32.5789 21.9831L32.4902 22.275L37.7915 32.0742Z" fill="white"/>
</g>
<path d="M15.2969 54.503L15.4579 54.341L16.0429 54.1034L37.5433 32.6828L37.8157 31.9413L32.4522 21.7207L15.2969 54.503Z" fill="#9CA4AB"/>
<path d="M38.5785 65.3057L58.0369 54.4537L52.4803 20.2318C52.3064 19.1612 50.9929 18.7379 50.2264 19.5056L15.2969 54.5029L34.6436 65.3048C35.245 65.6406 35.9222 65.8169 36.611 65.8171C37.2997 65.8172 37.977 65.6412 38.5785 65.3057Z" fill="#CCCCCC"/>
<path d="M57.8595 54.3626L52.3451 20.4006C52.1727 19.338 51.0802 18.8984 50.3196 19.6603L15.5098 54.4362L34.6442 65.1311C35.2409 65.4643 35.913 65.6393 36.5965 65.6395C37.28 65.6396 37.9521 65.465 38.5491 65.1321L57.8597 54.3624L57.8595 54.3626Z" fill="#CCCCCC"/>
<path d="M38.5782 64.9859C37.9767 65.3214 37.2994 65.4974 36.6107 65.4973C35.922 65.4971 35.2448 65.3208 34.6435 64.9851L15.4525 54.3384L15.2969 54.5029L34.6435 65.3049C35.2448 65.6406 35.9221 65.817 36.6108 65.8171C37.2995 65.8173 37.9768 65.6412 38.5783 65.3057L58.0367 54.4537L57.989 54.1605L38.5783 64.9861L38.5782 64.9859Z" fill="#CCCCCC"/>
</g>
<circle cx="51.4713" cy="51.1507" r="12.7877" fill="#595959"/>
<path d="M54.115 50.4678C55.2059 50.4678 56.0985 49.6171 56.0985 48.5774C56.0985 47.5378 55.2059 46.687 54.115 46.687C53.024 46.687 52.1314 47.5378 52.1314 48.5774C52.1314 49.6171 53.024 50.4678 54.115 50.4678ZM48.8255 50.4678C49.9165 50.4678 50.8091 49.6171 50.8091 48.5774C50.8091 47.5378 49.9165 46.687 48.8255 46.687C47.7346 46.687 46.842 47.5378 46.842 48.5774C46.842 49.6171 47.7346 50.4678 48.8255 50.4678ZM48.8255 51.8541C47.2717 51.8541 44.1973 52.5787 44.1973 54.0596V55.7609H53.5482V54.0596C53.5482 52.5787 50.3793 51.8541 48.8255 51.8541ZM54.115 52.2008C53.9167 52.2008 53.7797 52.2008 53.5482 52.2322C54.3089 52.7679 54.5872 53.1144 54.5872 54.0596V55.7609H58.7432V54.0596C58.7432 52.5787 55.6688 52.2008 54.115 52.2008Z" fill="white"/>
<defs>
<filter id="filter0_i_82_507" x="15.5059" y="7.36157" width="16.8945" height="46.7621" filterUnits="userSpaceOnUse" color-interpolation-filters="sRGB">
<feFlood flood-opacity="0" result="BackgroundImageFix"/>
<feBlend mode="normal" in="SourceGraphic" in2="BackgroundImageFix" result="shape"/>
<feColorMatrix in="SourceAlpha" type="matrix" values="0 0 0 0 0 0 0 0 0 0 0 0 0 0 0 0 0 0 127 0" result="hardAlpha"/>
<feOffset/>
<feGaussianBlur stdDeviation="2.92859"/>
<feComposite in2="hardAlpha" operator="arithmetic" k2="-1" k3="1"/>
<feColorMatrix type="matrix" values="0 0 0 0 0 0 0 0 0 0 0 0 0 0 0 0 0 0 0.06 0"/>
<feBlend mode="normal" in2="shape" result="effect1_innerShadow_82_507"/>
</filter>
<filter id="filter1_i_82_507" x="32.4902" y="14.4232" width="10.8295" height="17.651" filterUnits="userSpaceOnUse" color-interpolation-filters="sRGB">
<feFlood flood-opacity="0" result="BackgroundImageFix"/>
<feBlend mode="normal" in="SourceGraphic" in2="BackgroundImageFix" result="shape"/>
<feColorMatrix in="SourceAlpha" type="matrix" values="0 0 0 0 0 0 0 0 0 0 0 0 0 0 0 0 0 0 127 0" result="hardAlpha"/>
<feOffset dx="0.167348" dy="-1.50613"/>
<feGaussianBlur stdDeviation="0.585718"/>
<feComposite in2="hardAlpha" operator="arithmetic" k2="-1" k3="1"/>
<feColorMatrix type="matrix" values="0 0 0 0 0 0 0 0 0 0 0 0 0 0 0 0 0 0 0.09 0"/>
<feBlend mode="normal" in2="shape" result="effect1_innerShadow_82_507"/>
</filter>
<clipPath id="clip0_82_507">
<rect width="42.8411" height="58.7508" fill="white" transform="translate(15.2969 7.13794)"/>
</clipPath>
</defs>
</svg>
