<svg width="64" height="64" viewBox="0 0 64 64" fill="none" xmlns="http://www.w3.org/2000/svg">
<path d="M56 14V22L44 26L40 36L34.1625 38.335L24.4125 28.585C24.2268 28.399 24.0062 28.2515 23.7634 28.1509C23.5206 28.0502 23.2603 27.9984 22.9975 27.9984C22.7347 27.9984 22.4744 28.0502 22.2316 28.1509C21.9888 28.2515 21.7682 28.399 21.5825 28.585L8 42.1725V14C8 13.4696 8.21071 12.9609 8.58579 12.5858C8.96086 12.2107 9.46957 12 10 12H54C54.5304 12 55.0391 12.2107 55.4142 12.5858C55.7893 12.9609 56 13.4696 56 14Z" fill="#3580AF"/>
<path d="M54 10H10C8.93913 10 7.92172 10.4214 7.17157 11.1716C6.42143 11.9217 6 12.9391 6 14V50C6 51.0609 6.42143 52.0783 7.17157 52.8284C7.92172 53.5786 8.93913 54 10 54H26C26.4198 54 26.8289 53.868 27.1695 53.6225C27.51 53.3771 27.7647 53.0307 27.8975 52.6325L31.605 41.5125L40.75 37.8575C41.0012 37.756 41.2294 37.605 41.4209 37.4134C41.6125 37.2219 41.7635 36.9937 41.865 36.7425L45.52 27.605L56.64 23.8975C57.0368 23.7635 57.3816 23.5082 57.6256 23.1678C57.8696 22.8273 58.0006 22.4189 58 22V14C58 12.9391 57.5786 11.9217 56.8284 11.1716C56.0783 10.4214 55.0609 10 54 10ZM28.1025 39.3675L24.5575 50H10V43L23 30L30.605 37.605L29.25 38.1425C28.9814 38.2514 28.7397 38.4173 28.5415 38.6288C28.3434 38.8403 28.1936 39.0924 28.1025 39.3675ZM54 20.5575L43.3675 24.1025C43.0916 24.1944 42.8391 24.3453 42.6275 24.5448C42.416 24.7443 42.2505 24.9875 42.1425 25.2575L38.4625 34.4625L34.645 36L25.8275 27.1825C25.0774 26.4329 24.0604 26.0119 23 26.0119C21.9396 26.0119 20.9226 26.4329 20.1725 27.1825L10 37.3425V14H54V20.5575ZM57.17 28.8075C56.9128 28.6221 56.6153 28.5005 56.3019 28.4526C55.9885 28.4048 55.6682 28.4322 55.3675 28.5325L49.4175 30.5175C49.1419 30.6091 48.8895 30.7597 48.678 30.9587C48.4664 31.1577 48.3008 31.4005 48.1925 31.67L44.615 40.6125L35.6725 44.19C35.403 44.2982 35.1602 44.4639 34.9612 44.6755C34.7622 44.887 34.6116 45.1394 34.52 45.415L32.535 51.365C32.4343 51.6658 32.4066 51.9862 32.4541 52.2999C32.5017 52.6135 32.6232 52.9113 32.8085 53.1687C32.9939 53.4261 33.2378 53.6358 33.5202 53.7803C33.8026 53.9249 34.1153 54.0002 34.4325 54H54C55.0609 54 56.0783 53.5786 56.8284 52.8284C57.5786 52.0783 58 51.0609 58 50V30.4325C58.0001 30.1156 57.9249 29.8033 57.7805 29.5212C57.6362 29.2391 57.427 28.9954 57.17 28.81V28.8075ZM54 50H37.2075L38.02 47.5625L46.8975 44.0125C47.1487 43.911 47.3769 43.76 47.5684 43.5684C47.76 43.3769 47.911 43.1487 48.0125 42.8975L51.5625 34.02L54 33.2075V50Z" fill="white"/>
</svg>
