<svg width="73" height="73" viewBox="0 0 73 73" fill="none" xmlns="http://www.w3.org/2000/svg">
<g clip-path="url(#clip0_81_307)">
<path d="M28.3154 52.3827C28.3154 52.3827 26.0267 53.7136 29.9442 54.1639C34.6903 54.7053 37.1158 54.6278 42.346 53.6378C42.346 53.6378 43.7211 54.5 45.6413 55.2469C33.9169 60.2718 19.1062 54.9557 28.3154 52.3827ZM26.8827 45.8253C26.8827 45.8253 24.3157 47.7255 28.2361 48.131C33.306 48.654 37.3096 48.6968 44.2377 47.3628C44.2377 47.3628 45.196 48.3342 46.7028 48.8655C32.527 53.0108 16.7378 49.1924 26.8827 45.8253Z" fill="white"/>
<path d="M38.9613 34.7019C41.8503 38.0279 38.2023 41.021 38.2023 41.021C38.2023 41.021 45.5377 37.2342 42.1689 32.4921C39.0225 28.0702 36.6095 25.8727 49.672 18.2971C49.672 18.2971 29.1683 23.4181 38.9613 34.7019Z" fill="#9CA4AB"/>
<path d="M54.468 57.2326C54.468 57.2326 56.1617 58.6281 52.6026 59.7077C45.8351 61.758 24.4352 62.377 18.4903 59.7894C16.3534 58.8599 20.3609 57.5697 21.6214 57.2989C22.9361 57.0138 23.6875 57.067 23.6875 57.067C21.3109 55.3928 8.32624 60.3544 17.092 61.7751C40.9971 65.6519 60.6686 60.0296 54.468 57.2326ZM29.4164 39.0311C29.4164 39.0311 18.5313 41.6167 25.5618 42.5554C28.5303 42.9528 34.4479 42.863 39.9601 42.401C44.465 42.0212 48.9884 41.2132 48.9884 41.2132C48.9884 41.2132 47.3999 41.8934 46.2507 42.6781C35.1969 45.5854 13.8428 44.2329 19.9903 41.2591C25.1894 38.746 29.4164 39.0311 29.4164 39.0311ZM48.9435 49.9459C60.1805 44.1069 54.9849 38.4956 51.3585 39.2517C50.4696 39.4366 50.0734 39.5968 50.0734 39.5968C50.0734 39.5968 50.4034 39.08 51.0336 38.8563C58.2076 36.3341 63.725 46.2951 48.7177 50.2402C48.7177 50.2404 48.8916 50.085 48.9435 49.9459Z" fill="white"/>
<path d="M42.168 6.06426C42.168 6.06426 48.3911 12.2897 36.2656 21.8621C26.5423 29.5411 34.0484 33.9193 36.2616 38.9217C30.5859 33.8009 26.4206 29.2929 29.2151 25.0974C33.3164 18.9384 44.6788 15.9526 42.168 6.06426Z" fill="#9CA4AB"/>
<path d="M30.5202 65.7684C41.3061 66.459 57.8691 65.3854 58.2613 60.2817C58.2613 60.2817 57.5074 62.2167 49.3474 63.7531C40.1413 65.4854 28.7871 65.2832 22.0527 64.1729C22.0529 64.1729 23.4312 65.3139 30.5202 65.7684Z" fill="white"/>
</g>
<defs>
<clipPath id="clip0_81_307">
<rect width="44.4" height="60" fill="white" transform="translate(14 6)"/>
</clipPath>
</defs>
</svg>
