<svg width="614" height="614" viewBox="0 0 614 614" fill="none" xmlns="http://www.w3.org/2000/svg">
<g clip-path="url(#clip0_4607_7054)">
<rect width="614" height="614" rx="25.4508" fill="#060606" fill-opacity="0.9"/>
<rect x="306" y="95.2176" width="672.312" height="672.312" rx="18.3615" transform="rotate(45 306 95.2176)" fill="#079DFC" fill-opacity="0.1" stroke="url(#paint0_linear_4607_7054)" stroke-width="1.18461"/>
<rect x="306" y="196.039" width="539.226" height="539.226" rx="18.3615" transform="rotate(45 306 196.039)" fill="#079DFC" fill-opacity="0.1" stroke="url(#paint1_linear_4607_7054)" stroke-width="1.18461"/>
<rect x="307" y="344.327" width="434.37" height="434.37" rx="18.3615" transform="rotate(45 307 344.327)" fill="#079DFC" fill-opacity="0.1" stroke="url(#paint2_linear_4607_7054)" stroke-width="1.18461"/>
<g filter="url(#filter0_b_4607_7054)">
<rect x="36" y="47" width="541.889" height="519.62" rx="11.6649" fill="#060606" fill-opacity="0.1"/>
<rect x="37.0604" y="48.0604" width="539.769" height="517.499" rx="10.6045" stroke="white" stroke-opacity="0.7" stroke-width="2.1209" stroke-dasharray="9.54 19.09"/>
<path d="M363.679 246.895V218.263L346.331 199.705L329.214 155.166L270.889 192.812H329.214H340.879L346.331 199.705L340.879 193.872V223.968L363.679 246.895Z" fill="url(#paint3_radial_4607_7054)"/>
<path d="M329.214 155.166L346.331 199.705L340.879 192.812H329.214M329.214 155.166V192.812M329.214 155.166L270.889 192.812H329.214M363.679 218.263V246.895L340.879 223.968V193.872L363.679 218.263Z" stroke="black" stroke-opacity="0.3" stroke-width="2.1209"/>
<rect width="88.0173" height="176.035" transform="matrix(-1 0 0 1 437.91 360.893)" fill="url(#paint4_radial_4607_7054)"/>
<rect x="-1.06045" y="1.06045" width="85.8964" height="173.914" transform="matrix(-1 0 0 1 435.789 360.893)" stroke="black" stroke-opacity="0.3" stroke-width="2.1209"/>
<rect width="100.743" height="312.832" transform="matrix(-1 0 0 1 349.893 224.095)" fill="url(#paint5_radial_4607_7054)"/>
<rect x="-1.06045" y="1.06045" width="98.6218" height="310.712" transform="matrix(-1 0 0 1 347.772 224.095)" stroke="black" stroke-opacity="0.3" stroke-width="2.1209"/>
<path d="M178.1 402.25L248.09 362.484V535.867H178.1V402.25Z" fill="url(#paint6_radial_4607_7054)" stroke="black" stroke-opacity="0.3" stroke-width="2.1209"/>
<path d="M438.44 364.074L465.482 394.827V536.397H438.44V364.074Z" fill="url(#paint7_radial_4607_7054)" stroke="black" stroke-opacity="0.3" stroke-width="2.1209"/>
<path d="M377.465 261.211V361.423H349.893V232.579L377.465 261.211Z" fill="url(#paint8_radial_4607_7054)" stroke="black" stroke-opacity="0.3" stroke-width="2.1209"/>
<rect width="82.715" height="31.8135" transform="matrix(-1 0 0 1 340.349 192.282)" fill="url(#paint9_radial_4607_7054)"/>
<rect x="-1.06045" y="1.06045" width="80.5941" height="29.6926" transform="matrix(-1 0 0 1 338.228 192.282)" stroke="black" stroke-opacity="0.3" stroke-width="2.1209"/>
<line y1="-0.530225" x2="46.6598" y2="-0.530225" transform="matrix(-1 0 0 1 417.762 392.706)" stroke="black" stroke-opacity="0.3" stroke-width="1.06045"/>
<line y1="-0.530225" x2="46.6598" y2="-0.530225" transform="matrix(-1 0 0 1 417.762 411.794)" stroke="black" stroke-opacity="0.3" stroke-width="1.06045"/>
<line y1="-0.530225" x2="46.6598" y2="-0.530225" transform="matrix(-1 0 0 1 417.762 430.883)" stroke="black" stroke-opacity="0.3" stroke-width="1.06045"/>
<line y1="-0.530225" x2="46.6598" y2="-0.530225" transform="matrix(-1 0 0 1 417.762 449.971)" stroke="black" stroke-opacity="0.3" stroke-width="1.06045"/>
<line y1="-0.530225" x2="46.6598" y2="-0.530225" transform="matrix(-1 0 0 1 417.762 469.059)" stroke="black" stroke-opacity="0.3" stroke-width="1.06045"/>
<line y1="-0.530225" x2="46.6598" y2="-0.530225" transform="matrix(-1 0 0 1 417.762 488.147)" stroke="black" stroke-opacity="0.3" stroke-width="1.06045"/>
<line y1="-0.530225" x2="46.6598" y2="-0.530225" transform="matrix(-1 0 0 1 417.762 507.235)" stroke="black" stroke-opacity="0.3" stroke-width="1.06045"/>
<line y1="-0.530225" x2="274.656" y2="-0.530225" transform="matrix(4.37114e-08 1 1 -4.37114e-08 270.359 246.364)" stroke="black" stroke-opacity="0.3" stroke-width="1.06045"/>
<line y1="-0.530225" x2="274.656" y2="-0.530225" transform="matrix(4.37114e-08 1 1 -4.37114e-08 289.447 246.364)" stroke="black" stroke-opacity="0.3" stroke-width="1.06045"/>
<line y1="-0.530225" x2="274.656" y2="-0.530225" transform="matrix(4.37114e-08 1 1 -4.37114e-08 308.535 246.364)" stroke="black" stroke-opacity="0.3" stroke-width="1.06045"/>
<line y1="-0.530225" x2="274.656" y2="-0.530225" transform="matrix(4.37114e-08 1 1 -4.37114e-08 327.623 246.364)" stroke="black" stroke-opacity="0.3" stroke-width="1.06045"/>
<line y1="-0.530225" x2="21.209" y2="-0.530225" transform="matrix(-1 0 0 1 238.546 404.371)" stroke="black" stroke-opacity="0.3" stroke-width="1.06045"/>
<line y1="-0.530225" x2="21.209" y2="-0.530225" transform="matrix(-1 0 0 1 208.853 404.371)" stroke="black" stroke-opacity="0.3" stroke-width="1.06045"/>
<line y1="-0.530225" x2="21.209" y2="-0.530225" transform="matrix(-1 0 0 1 238.546 418.157)" stroke="black" stroke-opacity="0.3" stroke-width="1.06045"/>
<line y1="-0.530225" x2="21.209" y2="-0.530225" transform="matrix(-1 0 0 1 208.853 418.157)" stroke="black" stroke-opacity="0.3" stroke-width="1.06045"/>
<line y1="-0.530225" x2="21.209" y2="-0.530225" transform="matrix(-1 0 0 1 238.546 431.943)" stroke="black" stroke-opacity="0.3" stroke-width="1.06045"/>
<line y1="-0.530225" x2="21.209" y2="-0.530225" transform="matrix(-1 0 0 1 208.853 431.943)" stroke="black" stroke-opacity="0.3" stroke-width="1.06045"/>
<line y1="-0.530225" x2="21.209" y2="-0.530225" transform="matrix(-1 0 0 1 238.546 445.729)" stroke="black" stroke-opacity="0.3" stroke-width="1.06045"/>
<line y1="-0.530225" x2="21.209" y2="-0.530225" transform="matrix(-1 0 0 1 208.853 445.729)" stroke="black" stroke-opacity="0.3" stroke-width="1.06045"/>
<line y1="-0.530225" x2="21.209" y2="-0.530225" transform="matrix(-1 0 0 1 238.546 459.515)" stroke="black" stroke-opacity="0.3" stroke-width="1.06045"/>
<line y1="-0.530225" x2="21.209" y2="-0.530225" transform="matrix(-1 0 0 1 208.853 459.515)" stroke="black" stroke-opacity="0.3" stroke-width="1.06045"/>
<line y1="-0.530225" x2="21.209" y2="-0.530225" transform="matrix(-1 0 0 1 238.546 473.301)" stroke="black" stroke-opacity="0.3" stroke-width="1.06045"/>
<line y1="-0.530225" x2="21.209" y2="-0.530225" transform="matrix(-1 0 0 1 208.853 473.301)" stroke="black" stroke-opacity="0.3" stroke-width="1.06045"/>
<line y1="-0.530225" x2="21.209" y2="-0.530225" transform="matrix(-1 0 0 1 238.546 487.086)" stroke="black" stroke-opacity="0.3" stroke-width="1.06045"/>
<line y1="-0.530225" x2="21.209" y2="-0.530225" transform="matrix(-1 0 0 1 208.853 487.086)" stroke="black" stroke-opacity="0.3" stroke-width="1.06045"/>
<line y1="-0.530225" x2="21.209" y2="-0.530225" transform="matrix(-1 0 0 1 238.546 500.872)" stroke="black" stroke-opacity="0.3" stroke-width="1.06045"/>
<line y1="-0.530225" x2="21.209" y2="-0.530225" transform="matrix(-1 0 0 1 208.853 500.872)" stroke="black" stroke-opacity="0.3" stroke-width="1.06045"/>
<line y1="-0.530225" x2="21.209" y2="-0.530225" transform="matrix(-1 0 0 1 238.546 514.658)" stroke="black" stroke-opacity="0.3" stroke-width="1.06045"/>
<line y1="-0.530225" x2="21.209" y2="-0.530225" transform="matrix(-1 0 0 1 208.853 514.658)" stroke="black" stroke-opacity="0.3" stroke-width="1.06045"/>
<path fill-rule="evenodd" clip-rule="evenodd" d="M529.733 157.978L472.905 186.424V220.56L529.733 192.114V157.978Z" fill="url(#paint10_radial_4607_7054)"/>
<path fill-rule="evenodd" clip-rule="evenodd" d="M507.041 129.597V157.978L529.733 146.665V118.218L507.041 129.597Z" fill="url(#paint11_radial_4607_7054)"/>
<path fill-rule="evenodd" clip-rule="evenodd" d="M472.905 175.046L495.662 163.732V135.286L472.905 146.665V175.046Z" fill="url(#paint12_radial_4607_7054)"/>
<path d="M438.769 106.839L416.077 118.218L438.769 129.597L461.526 118.218L438.769 106.839Z" fill="url(#paint13_radial_4607_7054)"/>
<path fill-rule="evenodd" clip-rule="evenodd" d="M472.905 89.7714L450.148 101.15L472.905 112.529L507.041 129.597L529.733 118.218L472.905 89.7714Z" fill="url(#paint14_radial_4607_7054)"/>
<path d="M472.905 123.907L450.148 135.286L472.905 146.665L495.662 135.286L472.905 123.907Z" fill="url(#paint15_radial_4607_7054)"/>
<path d="M450.148 174.784V208.92L472.905 220.56V186.424L450.148 174.784ZM467.216 208.92L455.837 203.231V186.424L467.216 192.114V208.92Z" fill="url(#paint16_radial_4607_7054)"/>
<path d="M416.077 118.218V192.114L438.769 203.492V129.597L416.077 118.218ZM433.145 192.114L421.701 186.424V121.03L433.145 126.719V192.114Z" fill="url(#paint17_radial_4607_7054)"/>
<path d="M450.148 135.547L472.905 146.665V174.784L450.148 163.732V135.547ZM467.216 163.994V144.376L455.837 138.49V158.109L467.216 163.994Z" fill="url(#paint18_radial_4607_7054)"/>
<path fill-rule="evenodd" clip-rule="evenodd" d="M134.587 200.784L112.568 187.793C111.996 187.474 111.495 187.042 111.094 186.524C110.692 186.006 110.4 185.412 110.233 184.779C110.067 184.145 110.03 183.484 110.124 182.836C110.219 182.188 110.444 181.565 110.785 181.006C111.126 180.446 111.576 179.961 112.109 179.58C112.641 179.198 113.246 178.928 113.885 178.786C114.525 178.643 115.186 178.631 115.831 178.75C116.475 178.87 117.088 179.117 117.635 179.479L139.459 192.47L134.587 200.784Z" fill="url(#paint19_radial_4607_7054)"/>
<path fill-rule="evenodd" clip-rule="evenodd" d="M136.276 223.192L91.9135 197.536C91.3591 197.216 90.8731 196.79 90.4833 196.283C90.0934 195.775 89.8074 195.195 89.6416 194.577C89.3066 193.329 89.4813 191.998 90.1273 190.878C90.7733 189.759 91.8377 188.941 93.0862 188.607C94.3347 188.272 95.6652 188.446 96.7849 189.092L136.276 211.956V223.192Z" fill="url(#paint20_radial_4607_7054)"/>
<path fill-rule="evenodd" clip-rule="evenodd" d="M188.758 190.846C188.097 189.787 187.06 189.017 185.855 188.691C184.65 188.366 183.366 188.509 182.262 189.092L144.265 210.786V200.719L166.284 187.728C167.346 187.069 168.11 186.022 168.413 184.81C168.716 183.597 168.535 182.314 167.908 181.233C167.238 180.183 166.191 179.43 164.983 179.128C163.776 178.826 162.498 178.998 161.413 179.609L137.12 193.769C136.35 194.221 135.712 194.866 135.267 195.641C134.823 196.415 134.589 197.293 134.587 198.186V292.627C134.508 293.309 134.574 294.001 134.781 294.656C134.988 295.311 135.331 295.915 135.788 296.428C136.246 296.941 136.806 297.352 137.433 297.633C138.06 297.914 138.739 298.06 139.426 298.06C140.113 298.06 140.793 297.914 141.42 297.633C142.047 297.352 142.607 296.941 143.064 296.428C143.521 295.915 143.864 295.311 144.071 294.656C144.278 294.001 144.344 293.309 144.265 292.627V222.088L186.939 197.536C188.061 196.884 188.88 195.816 189.22 194.564C189.561 193.312 189.395 191.976 188.758 190.846Z" fill="url(#paint21_radial_4607_7054)"/>
<path d="M139.459 181.753C142.472 181.753 144.915 179.31 144.915 176.297C144.915 173.283 142.472 170.841 139.459 170.841C136.445 170.841 134.003 173.283 134.003 176.297C134.003 179.31 136.445 181.753 139.459 181.753Z" fill="url(#paint22_radial_4607_7054)"/>
<path d="M123.026 226.505C123.772 226.913 124.395 227.514 124.829 228.245C125.264 228.977 125.493 229.811 125.494 230.662V257.162C125.498 258.023 125.271 258.868 124.837 259.611C124.403 260.353 123.777 260.966 123.026 261.384C122.29 261.795 121.465 262.018 120.623 262.034C119.761 262.011 118.916 261.788 118.154 261.384L90.0948 245.211C88.9751 244.565 88.1579 243.501 87.8229 242.252C87.4879 241.004 87.6627 239.673 88.3087 238.554C88.9546 237.434 90.019 236.617 91.2675 236.282C92.5161 235.947 93.8466 236.121 94.9663 236.767L115.751 248.719V233.52L106.333 228.129C105.261 227.479 104.481 226.442 104.155 225.232C103.828 224.023 103.98 222.734 104.579 221.633C105.217 220.549 106.255 219.759 107.469 219.431C108.683 219.103 109.978 219.264 111.074 219.88L123.026 226.505Z" fill="url(#paint23_radial_4607_7054)"/>
<path d="M95.6158 221.828C98.6291 221.828 101.072 219.386 101.072 216.372C101.072 213.359 98.6291 210.916 95.6158 210.916C92.6025 210.916 90.1598 213.359 90.1598 216.372C90.1598 219.386 92.6025 221.828 95.6158 221.828Z" fill="url(#paint24_radial_4607_7054)"/>
<path d="M167.583 219.685C168.68 219.069 169.974 218.908 171.189 219.236C172.403 219.564 173.441 220.355 174.078 221.439C174.677 222.539 174.83 223.828 174.503 225.038C174.176 226.247 173.396 227.284 172.325 227.934L162.907 233.325V248.524L183.691 236.572C184.246 236.253 184.858 236.045 185.492 235.962C186.127 235.878 186.772 235.921 187.39 236.087C188.008 236.253 188.588 236.539 189.096 236.928C189.603 237.318 190.029 237.804 190.349 238.359C190.669 238.913 190.876 239.525 190.96 240.16C191.043 240.794 191.001 241.439 190.835 242.057C190.669 242.676 190.383 243.255 189.993 243.763C189.603 244.271 189.117 244.696 188.563 245.016L160.503 261.189C159.742 261.594 158.897 261.816 158.035 261.839C157.193 261.823 156.368 261.6 155.632 261.189C154.88 260.771 154.255 260.159 153.821 259.416C153.387 258.673 153.16 257.828 153.164 256.968V230.662C153.164 229.811 153.394 228.977 153.828 228.245C154.262 227.514 154.885 226.913 155.632 226.505L167.583 219.685Z" fill="url(#paint25_radial_4607_7054)"/>
<path d="M183.172 221.828C186.185 221.828 188.628 219.386 188.628 216.372C188.628 213.359 186.185 210.916 183.172 210.916C180.158 210.916 177.716 213.359 177.716 216.372C177.716 219.386 180.158 221.828 183.172 221.828Z" fill="url(#paint26_radial_4607_7054)"/>
</g>
</g>
<defs>
<filter id="filter0_b_4607_7054" x="6.30743" y="17.3074" width="601.275" height="579.005" filterUnits="userSpaceOnUse" color-interpolation-filters="sRGB">
<feFlood flood-opacity="0" result="BackgroundImageFix"/>
<feGaussianBlur in="BackgroundImageFix" stdDeviation="14.8463"/>
<feComposite in2="SourceAlpha" operator="in" result="effect1_backgroundBlur_4607_7054"/>
<feBlend mode="normal" in="SourceGraphic" in2="effect1_backgroundBlur_4607_7054" result="shape"/>
</filter>
<linearGradient id="paint0_linear_4607_7054" x1="334.062" y1="138.032" x2="605.332" y2="356.295" gradientUnits="userSpaceOnUse">
<stop stop-color="white" stop-opacity="0.5"/>
<stop offset="1" stop-color="white" stop-opacity="0"/>
</linearGradient>
<linearGradient id="paint1_linear_4607_7054" x1="328.517" y1="230.228" x2="546.182" y2="405.361" gradientUnits="userSpaceOnUse">
<stop stop-color="white" stop-opacity="0.5"/>
<stop offset="1" stop-color="white" stop-opacity="0"/>
</linearGradient>
<linearGradient id="paint2_linear_4607_7054" x1="325.148" y1="371.72" x2="500.58" y2="512.872" gradientUnits="userSpaceOnUse">
<stop stop-color="white" stop-opacity="0.5"/>
<stop offset="1" stop-color="white" stop-opacity="0"/>
</linearGradient>
<radialGradient id="paint3_radial_4607_7054" cx="0" cy="0" r="1" gradientUnits="userSpaceOnUse" gradientTransform="translate(317.284 201.03) rotate(90) scale(45.8644 46.3946)">
<stop stop-color="#079DFC"/>
<stop offset="1" stop-color="#045D96"/>
</radialGradient>
<radialGradient id="paint4_radial_4607_7054" cx="0" cy="0" r="1" gradientUnits="userSpaceOnUse" gradientTransform="translate(44.0086 88.0173) rotate(90) scale(88.0173 44.0086)">
<stop stop-color="#079DFC"/>
<stop offset="1" stop-color="#045D96"/>
</radialGradient>
<radialGradient id="paint5_radial_4607_7054" cx="0" cy="0" r="1" gradientUnits="userSpaceOnUse" gradientTransform="translate(50.3713 156.416) rotate(90) scale(156.416 50.3713)">
<stop stop-color="#079DFC"/>
<stop offset="1" stop-color="#045D96"/>
</radialGradient>
<radialGradient id="paint6_radial_4607_7054" cx="0" cy="0" r="1" gradientUnits="userSpaceOnUse" gradientTransform="translate(213.095 449.175) rotate(90) scale(86.6917 34.9948)">
<stop stop-color="#079DFC"/>
<stop offset="1" stop-color="#045D96"/>
</radialGradient>
<radialGradient id="paint7_radial_4607_7054" cx="0" cy="0" r="1" gradientUnits="userSpaceOnUse" gradientTransform="translate(451.961 450.236) rotate(90) scale(86.1615 13.5207)">
<stop stop-color="#079DFC"/>
<stop offset="1" stop-color="#045D96"/>
</radialGradient>
<radialGradient id="paint8_radial_4607_7054" cx="0" cy="0" r="1" gradientUnits="userSpaceOnUse" gradientTransform="translate(363.679 297.001) rotate(90) scale(64.4223 13.7858)">
<stop stop-color="#079DFC"/>
<stop offset="1" stop-color="#045D96"/>
</radialGradient>
<radialGradient id="paint9_radial_4607_7054" cx="0" cy="0" r="1" gradientUnits="userSpaceOnUse" gradientTransform="translate(41.3575 15.9067) rotate(90) scale(15.9067 41.3575)">
<stop stop-color="#079DFC"/>
<stop offset="1" stop-color="#045D96"/>
</radialGradient>
<radialGradient id="paint10_radial_4607_7054" cx="0" cy="0" r="1" gradientUnits="userSpaceOnUse" gradientTransform="translate(501.319 189.269) rotate(90) scale(31.2912 28.4139)">
<stop stop-color="#079DFC"/>
<stop offset="1" stop-color="#045D96"/>
</radialGradient>
<radialGradient id="paint11_radial_4607_7054" cx="0" cy="0" r="1" gradientUnits="userSpaceOnUse" gradientTransform="translate(518.387 138.098) rotate(90) scale(19.8799 11.3459)">
<stop stop-color="#079DFC"/>
<stop offset="1" stop-color="#045D96"/>
</radialGradient>
<radialGradient id="paint12_radial_4607_7054" cx="0" cy="0" r="1" gradientUnits="userSpaceOnUse" gradientTransform="translate(484.284 155.166) rotate(90) scale(19.8799 11.3786)">
<stop stop-color="#079DFC"/>
<stop offset="1" stop-color="#045D96"/>
</radialGradient>
<radialGradient id="paint13_radial_4607_7054" cx="0" cy="0" r="1" gradientUnits="userSpaceOnUse" gradientTransform="translate(438.802 118.218) rotate(90) scale(11.3786 22.7245)">
<stop stop-color="#079DFC"/>
<stop offset="1" stop-color="#045D96"/>
</radialGradient>
<radialGradient id="paint14_radial_4607_7054" cx="0" cy="0" r="1" gradientUnits="userSpaceOnUse" gradientTransform="translate(489.94 109.684) rotate(90) scale(19.9126 39.7925)">
<stop stop-color="#079DFC"/>
<stop offset="1" stop-color="#045D96"/>
</radialGradient>
<radialGradient id="paint15_radial_4607_7054" cx="0" cy="0" r="1" gradientUnits="userSpaceOnUse" gradientTransform="translate(472.905 135.286) rotate(90) scale(11.3786 22.7572)">
<stop stop-color="#079DFC"/>
<stop offset="1" stop-color="#045D96"/>
</radialGradient>
<radialGradient id="paint16_radial_4607_7054" cx="0" cy="0" r="1" gradientUnits="userSpaceOnUse" gradientTransform="translate(461.526 197.672) rotate(90) scale(22.888 11.3786)">
<stop stop-color="#079DFC"/>
<stop offset="1" stop-color="#045D96"/>
</radialGradient>
<radialGradient id="paint17_radial_4607_7054" cx="0" cy="0" r="1" gradientUnits="userSpaceOnUse" gradientTransform="translate(427.423 160.855) rotate(90) scale(42.6371 11.3459)">
<stop stop-color="#079DFC"/>
<stop offset="1" stop-color="#045D96"/>
</radialGradient>
<radialGradient id="paint18_radial_4607_7054" cx="0" cy="0" r="1" gradientUnits="userSpaceOnUse" gradientTransform="translate(461.526 155.166) rotate(90) scale(19.6183 11.3786)">
<stop stop-color="#079DFC"/>
<stop offset="1" stop-color="#045D96"/>
</radialGradient>
<radialGradient id="paint19_radial_4607_7054" cx="0" cy="0" r="1" gradientUnits="userSpaceOnUse" gradientTransform="translate(124.766 189.726) rotate(90) scale(11.0572 14.6928)">
<stop stop-color="#079DFC"/>
<stop offset="1" stop-color="#045D96"/>
</radialGradient>
<radialGradient id="paint20_radial_4607_7054" cx="0" cy="0" r="1" gradientUnits="userSpaceOnUse" gradientTransform="translate(112.876 205.816) rotate(90) scale(17.3762 23.4005)">
<stop stop-color="#079DFC"/>
<stop offset="1" stop-color="#045D96"/>
</radialGradient>
<radialGradient id="paint21_radial_4607_7054" cx="0" cy="0" r="1" gradientUnits="userSpaceOnUse" gradientTransform="translate(161.974 238.521) rotate(90) scale(59.5383 27.4193)">
<stop stop-color="#079DFC"/>
<stop offset="1" stop-color="#045D96"/>
</radialGradient>
<radialGradient id="paint22_radial_4607_7054" cx="0" cy="0" r="1" gradientUnits="userSpaceOnUse" gradientTransform="translate(139.459 176.297) rotate(90) scale(5.45601)">
<stop stop-color="#079DFC"/>
<stop offset="1" stop-color="#045D96"/>
</radialGradient>
<radialGradient id="paint23_radial_4607_7054" cx="0" cy="0" r="1" gradientUnits="userSpaceOnUse" gradientTransform="translate(106.575 240.649) rotate(90) scale(21.3847 18.9188)">
<stop stop-color="#079DFC"/>
<stop offset="1" stop-color="#045D96"/>
</radialGradient>
<radialGradient id="paint24_radial_4607_7054" cx="0" cy="0" r="1" gradientUnits="userSpaceOnUse" gradientTransform="translate(95.6158 216.372) rotate(90) scale(5.45601 5.45601)">
<stop stop-color="#079DFC"/>
<stop offset="1" stop-color="#045D96"/>
</radialGradient>
<radialGradient id="paint25_radial_4607_7054" cx="0" cy="0" r="1" gradientUnits="userSpaceOnUse" gradientTransform="translate(172.082 240.454) rotate(90) scale(21.3847 18.9188)">
<stop stop-color="#079DFC"/>
<stop offset="1" stop-color="#045D96"/>
</radialGradient>
<radialGradient id="paint26_radial_4607_7054" cx="0" cy="0" r="1" gradientUnits="userSpaceOnUse" gradientTransform="translate(183.172 216.372) rotate(90) scale(5.45601)">
<stop stop-color="#079DFC"/>
<stop offset="1" stop-color="#045D96"/>
</radialGradient>
<clipPath id="clip0_4607_7054">
<rect width="614" height="614" rx="25.4508" fill="white"/>
</clipPath>
</defs>
</svg>
